HIERARCHY
ROOT hip
{
  OFFSET 0 0 0
  CHANNELS 6 Xposition Yposition Zposition Zrotation Yrotation Xrotation
  JOINT abdomen
  {
    OFFSET 0 20.6881 -0.73152
    CHANNELS 3 Zrotation Xrotation Yrotation
    JOINT chest
    {
      OFFSET 0 11.7043 -0.48768
      CHANNELS 3 Zrotation Xrotation Yrotation
      JOINT neck
      {
        OFFSET 0 22.1894 -2.19456
        CHANNELS 3 Zrotation Xrotation Yrotation
        JOINT head
        {
          OFFSET -0.24384 7.07133 1.2192
          CHANNELS 3 Zrotation Xrotation Yrotation
          JOINT leftEye
          {
            OFFSET 4.14528 8.04674 8.04672
            CHANNELS 3 Zrotation Xrotation Yrotation
            End Site
            {
              OFFSET 1 0 0
            }
          }
          JOINT rightEye
          {
            OFFSET -3.6576 8.04674 8.04672
            CHANNELS 3 Zrotation Xrotation Yrotation
            End Site
            {
              OFFSET 1 0 0
            }
          }
        }
      }
      JOINT rCollar
      {
        OFFSET -2.68224 19.2634 -4.8768
        CHANNELS 3 Zrotation Xrotation Yrotation
        JOINT rShldr
        {
          OFFSET -8.77824 -1.95073 1.46304
          CHANNELS 3 Zrotation Xrotation Yrotation
          JOINT rForeArm
          {
            OFFSET -28.1742 -1.7115 0.48768
            CHANNELS 3 Zrotation Xrotation Yrotation
            JOINT rHand
            {
              OFFSET -22.5879 0.773209 7.07136
              CHANNELS 3 Zrotation Xrotation Yrotation
              JOINT rThumb1
              {
                OFFSET -1.2192 -0.487915 3.41376
                CHANNELS 3 Zrotation Xrotation Yrotation
                JOINT rThumb2
                {
                  OFFSET -3.37035 -0.52449 3.41376
                  CHANNELS 3 Zrotation Xrotation Yrotation
                  End Site
                  {
                    OFFSET -1.78271 -1.18214 1.43049
                  }
                }
              }
              JOINT rIndex1
              {
                OFFSET -7.75947 0.938293 5.60832
                CHANNELS 3 Zrotation Xrotation Yrotation
                JOINT rIndex2
                {
                  OFFSET -2.54057 -0.884171 1.56538
                  CHANNELS 3 Zrotation Xrotation Yrotation
                  End Site
                  {
                    OFFSET -1.62519 -0.234802 1.16502
                  }
                }
              }
              JOINT rMid1
              {
                OFFSET -8.24714 1.18213 3.41376
                CHANNELS 3 Zrotation Xrotation Yrotation
                JOINT rMid2
                {
                  OFFSET -3.10165 -0.590103 1.0647
                  CHANNELS 3 Zrotation Xrotation Yrotation
                  End Site
                  {
                    OFFSET -2.48547 -0.328903 0.83742
                  }
                }
              }
              JOINT rRing1
              {
                OFFSET -8.82822 0.546677 1.51678
                CHANNELS 3 Zrotation Xrotation Yrotation
                JOINT rRing2
                {
                  OFFSET -2.60934 -0.819778 -0.0198488
                  CHANNELS 3 Zrotation Xrotation Yrotation
                  End Site
                  {
                    OFFSET -2.33842 -0.294052 0.168128
                  }
                }
              }
              JOINT rPinky1
              {
                OFFSET -8.27202 -0.0477905 -0.4584
                CHANNELS 3 Zrotation Xrotation Yrotation
                JOINT rPinky2
                {
                  OFFSET -1.82734 -0.647385 -0.700984
                  CHANNELS 3 Zrotation Xrotation Yrotation
                  End Site
                  {
                    OFFSET -1.69225 -0.51767 -0.607171
                  }
                }
              }
            }
          }
        }
      }
      JOINT lCollar
      {
        OFFSET 2.68224 19.2634 -4.8768
        CHANNELS 3 Zrotation Xrotation Yrotation
        JOINT lShldr
        {
          OFFSET 8.77824 -1.95073 1.46304
          CHANNELS 3 Zrotation Xrotation Yrotation
          JOINT lForeArm
          {
            OFFSET 28.1742 -1.7115 0.48768
            CHANNELS 3 Zrotation Xrotation Yrotation
            JOINT lHand
            {
              OFFSET 22.5879 0.773209 7.07136
              CHANNELS 3 Zrotation Xrotation Yrotation
              JOINT lThumb1
              {
                OFFSET 1.2192 -0.487915 3.41376
                CHANNELS 3 Zrotation Xrotation Yrotation
                JOINT lThumb2
                {
                  OFFSET 3.37035 -0.52449 3.41376
                  CHANNELS 3 Zrotation Xrotation Yrotation
                  End Site
                  {
                    OFFSET 1.78271 -1.18214 1.43049
                  }
                }
              }
              JOINT lIndex1
              {
                OFFSET 7.75947 0.938293 5.60832
                CHANNELS 3 Zrotation Xrotation Yrotation
                JOINT lIndex2
                {
                  OFFSET 2.54057 -0.884171 1.56538
                  CHANNELS 3 Zrotation Xrotation Yrotation
                  End Site
                  {
                    OFFSET 1.62519 -0.234802 1.16502
                  }
                }
              }
              JOINT lMid1
              {
                OFFSET 8.24714 1.18213 3.41376
                CHANNELS 3 Zrotation Xrotation Yrotation
                JOINT lMid2
                {
                  OFFSET 3.10165 -0.590103 1.0647
                  CHANNELS 3 Zrotation Xrotation Yrotation
                  End Site
                  {
                    OFFSET 2.48547 -0.328903 0.83742
                  }
                }
              }
              JOINT lRing1
              {
                OFFSET 8.82822 0.546677 1.51678
                CHANNELS 3 Zrotation Xrotation Yrotation
                JOINT lRing2
                {
                  OFFSET 2.60934 -0.819778 -0.0198488
                  CHANNELS 3 Zrotation Xrotation Yrotation
                  End Site
                  {
                    OFFSET 2.33842 -0.294052 0.168128
                  }
                }
              }
              JOINT lPinky1
              {
                OFFSET 8.27202 -0.0477905 -0.4584
                CHANNELS 3 Zrotation Xrotation Yrotation
                JOINT lPinky2
                {
                  OFFSET 1.82734 -0.647385 -0.700984
                  CHANNELS 3 Zrotation Xrotation Yrotation
                  End Site
                  {
                    OFFSET 1.69225 -0.51767 -0.607171
                  }
                }
              }
            }
          }
        }
      }
    }
  }
  JOINT rButtock
  {
    OFFSET -8.77824 4.35084 1.2192
    CHANNELS 3 Zrotation Xrotation Yrotation
    JOINT rThigh
    {
      OFFSET 0 -1.70687 -2.19456
      CHANNELS 3 Zrotation Xrotation Yrotation
      JOINT rShin
      {
        OFFSET 0 -36.8199 0.73152
        CHANNELS 3 Zrotation Xrotation Yrotation
        JOINT rFoot
        {
          OFFSET 0.73152 -45.1104 -5.12064
          CHANNELS 3 Zrotation Xrotation Yrotation
          End Site
          {
            OFFSET -1.1221 -3.69964 12.103
          }
        }
      }
    }
  }
  JOINT lButtock
  {
    OFFSET 8.77824 4.35084 1.2192
    CHANNELS 3 Zrotation Xrotation Yrotation
    JOINT lThigh
    {
      OFFSET 0 -1.70687 -2.19456
      CHANNELS 3 Zrotation Xrotation Yrotation
      JOINT lShin
      {
        OFFSET 0 -36.8199 0.73152
        CHANNELS 3 Zrotation Xrotation Yrotation
        JOINT lFoot
        {
          OFFSET -0.73152 -45.1104 -5.12064
          CHANNELS 3 Zrotation Xrotation Yrotation
          End Site
          {
            OFFSET 1.1221 -3.69964 12.103
          }
        }
      }
    }
  }
}
MOTION
Frames:	4
Frame Time:	0.03333
0.00020085025028068745 61.828299876491954 0.09366569246126408 -2.6782288551330566 -2.3044536113739014 7.269363880157471 -2.7259466648101807 14.27151870727539 3.8270368576049805 2.839444875717163 -9.482500076293945 1.3612654209136963 -5.16448450088501 14.540996551513672 -3.630561351776123 9.029608726501465 -22.342998504638672 -5.314518451690674 -0.07399309426546097 0.03158256784081459 -0.032414961606264114 -0.024466998875141144 0.07707703858613968 0.012368323281407356 0.12128500640392303 -0.07107456028461456 -0.004308483097702265 45.92078399658203 39.709197998046875 18.456087112426758 -25.44652557373047 -26.0111083984375 68.18986511230469 -1.5581949949264526 -9.523751258850098 -1.562780737876892 -0.116374172270298 0.05967222526669502 -0.04386843368411064 0.026145536452531815 0.022500459104776382 0.0276525616645813 -0.06705895811319351 -0.09142633527517319 -0.03171359375119209 7.823256969451904 5.423557281494141 0.3809865713119507 -0.028467077761888504 0.1816616803407669 -0.02361466735601425 2.937697649002075 0.9722082614898682 0.07851733267307281 0.026557371020317078 -0.002592941513285041 -0.03844137862324715 10.261884689331055 0.7880306243896484 -0.06425963342189789 -0.04654981940984726 0.0018173727439716458 -0.014290564693510532 2.1504244804382324 -0.7428721189498901 -0.2630239427089691 -0.03863067924976349 -0.0273762084543705 0.009209269657731056 -55.214900970458984 40.27176284790039 -25.138675689697266 25.02235221862793 -23.724702835083008 -65.03711700439453 2.033344030380249 -14.484363555908203 2.1604559421539307 0.0016377114225178957 0.05024365708231926 -0.12917010486125946 -0.09350987523794174 -0.03268514573574066 0.1038336232304573 0.031883008778095245 0.0029817570466548204 0.059774190187454224 -7.730527877807617 5.3932671546936035 -0.4254709780216217 0.04034159705042839 0.048026472330093384 -0.0055251531302928925 -3.0149354934692383 0.9603608250617981 -0.051681146025657654 -0.02261802926659584 -0.07538393884897232 -0.036890238523483276 -10.305686950683594 0.6639901995658875 0.04685469716787338 -0.025013217702507973 -0.04218032956123352 0.006387752015143633 -2.248096227645874 -0.7480005621910095 0.13245515525341034 -0.027884766459465027 -0.07774751633405685 0.07097972929477692 -24.858272552490234 -43.18561553955078 -18.94681739807129 -1.534999966621399 65.72843933105469 2.886611223220825 -4.454565048217773 -12.134869575500488 -9.440401077270508 -0.03351150453090668 0.04238124564290047 -0.0493304617702961 29.901729583740234 -44.50465774536133 21.45131492614746 1.4494658708572388 65.95736694335938 -2.580981492996216 4.8340253829956055 -12.376871109008789 13.258541107177734
0.001207396018358426 61.6961835273764 0.2440968203102397 -3.2406957149505615 0.9365647435188293 10.055540084838867 -2.7469077110290527 14.61929988861084 3.8767356872558594 2.506315231323242 -9.711265563964844 1.1576900482177734 -4.8881354331970215 14.328832626342773 -3.5725090503692627 8.890983581542969 -21.81592559814453 -5.3883137702941895 -0.08074812591075897 -0.014975491911172867 -0.13138402998447418 -0.024933209642767906 0.11473377048969269 0.00671963719651103 -0.15748517215251923 -0.12700186669826508 0.020046792924404144 46.19758987426758 39.46942901611328 19.18984603881836 -25.285621643066406 -26.343151092529297 68.95425415039062 -1.5762351751327515 -10.926424980163574 -1.4697120189666748 -0.06781173497438431 0.13111846148967743 0.037636902183294296 0.01758614368736744 0.026519276201725006 -0.008090430870652199 -0.042710017412900925 -0.13159383833408356 -0.09472658485174179 7.792848587036133 5.50039529800415 0.37500670552253723 0.06212051585316658 -0.048170287162065506 0.041443176567554474 2.789580821990967 1.0249485969543457 0.1598454862833023 0.14979681372642517 0.0679442286491394 -0.0294182151556015 10.31721019744873 0.6566962003707886 0.022275496274232864 -0.033560674637556076 0.004696771036833525 0.044618647545576096 2.0482177734375 -0.7494192719459534 -0.15914249420166016 -0.09141913056373596 -0.11606466770172119 -0.08036699146032333 -54.91836166381836 40.591575622558594 -25.651506423950195 25.067602157592773 -24.088380813598633 -66.34590911865234 2.1440317630767822 -14.95409107208252 2.2487852573394775 -0.0026398985646665096 -0.055749066174030304 -0.01320600789040327 0.11841917783021927 0.08665239810943604 0.037879496812820435 -0.09343935549259186 0.1580427587032318 -0.16726794838905334 -7.717553615570068 5.467748641967773 -0.5065626502037048 0.1308375597000122 0.11191298067569733 0.07812882214784622 -2.9591128826141357 0.8893032073974609 -0.01790849305689335 0.09840356558561325 -0.17268593609333038 -0.044468920677900314 -10.114811897277832 0.8329828977584839 0.15716616809368134 0.03594515845179558 -0.10285834968090057 0.11228121817111969 -2.226670026779175 -0.6800146698951721 0.07627537846565247 0.03242235630750656 -0.19519811868667603 0.12525436282157898 -25.675647735595703 -41.36853790283203 -19.682687759399414 -1.7444027662277222 64.86666107177734 2.5412521362304688 -4.509224891662598 -11.685694694519043 -9.513287544250488 -0.1906454712152481 0.09770172089338303 -0.07923492789268494 30.458154678344727 -42.088706970214844 21.075796127319336 1.496793270111084 66.7721939086914 -2.4928603172302246 5.110886573791504 -11.961716651916504 13.064326286315918
-0.029159625031518265 46.29887100594373 0.21279123521886803 -5.24735689163208 67.4661636352539 28.627307891845703 -2.2867939472198486 17.085447311401367 9.241827964782715 -1.7174087762832642 -12.021746635437012 2.9003443717956543 -1.2089394330978394 13.57247543334961 5.689230442047119 4.0503249168396 -21.68089485168457 12.123724937438965 -0.1092831939458847 0.13603515923023224 0.29306846857070923 -0.12002158164978027 -0.6394944190979004 -0.4116480052471161 -1.1007736921310425 0.09460537135601044 -0.24095042049884796 27.714805603027344 55.13990020751953 31.447080612182617 -27.458621978759766 -46.54460525512695 91.17792510986328 -1.4965057373046875 -9.965943336486816 -0.9203668832778931 0.2158060371875763 -0.07693116366863251 0.3906010091304779 0.05659662187099457 0.8356248736381531 0.08089771866798401 -0.06411200016736984 -0.02204735018312931 -0.35022222995758057 7.257139682769775 5.447227478027344 0.09593994915485382 0.6546448469161987 -0.8777023553848267 0.1747872531414032 3.167125940322876 0.9105086922645569 0.08106103539466858 -0.1159614697098732 0.28056564927101135 0.6230428814888 10.07723331451416 0.2255905121564865 0.26590147614479065 -0.3395434617996216 -0.48486563563346863 -0.18455195426940918 1.9392399787902832 -0.4120856523513794 -0.3283846378326416 0.061417076736688614 -0.41235682368278503 -0.3611977696418762 -48.98663330078125 26.815879821777344 -27.5518741607666 26.808378219604492 -41.383750915527344 -86.25591278076172 3.3422791957855225 -32.4114875793457 5.39219331741333 -0.13815337419509888 0.0790749341249466 0.10344268381595612 0.9248813390731812 0.4201982021331787 0.44722917675971985 -0.03870820999145508 0.21857216954231262 -0.8875950574874878 -7.819805145263672 5.235447883605957 -0.1992291808128357 0.24909067153930664 0.6700429320335388 -0.18671546876430511 -2.8223962783813477 1.0029414892196655 -0.32381871342658997 0.04498319327831268 0.056969329714775085 0.035058729350566864 -10.159706115722656 0.48336800932884216 0.4509187936782837 -0.2533499598503113 0.09944283962249756 0.5853018760681152 -2.3801307678222656 -0.7846565842628479 -0.009945202618837357 0.18721076846122742 -0.1216784343123436 -0.201608344912529 -46.4307861328125 -47.51224136352539 -40.57455825805664 -20.665193557739258 85.39759063720703 22.22528648376465 -3.054866313934326 -19.376129150390625 -7.349655628204346 0.8945714831352234 0.26989880204200745 -0.27380114793777466 68.46334075927734 -51.04610824584961 55.84819030761719 143.84498596191406 87.83354187011719 -145.4804229736328 -0.11680006235837936 -14.574029922485352 2.9561874866485596
-0.10048814430760768 44.51009227364158 0.419547411336648 175.21539306640625 73.92172241210938 -133.3848114013672 -3.85689640045166 16.65822982788086 14.14926815032959 -3.7533624172210693 -13.2559175491333 3.158773899078369 1.0832003355026245 14.123170852661133 11.84880256652832 -0.1617046743631363 -18.97184944152832 24.6072998046875 0.2842768728733063 -0.0041712187230587006 -0.44398194551467896 -0.6241421103477478 0.09285733103752136 -0.6697990894317627 -0.9594861268997192 -0.3482013940811157 -0.08202217519283295 12.670890808105469 62.062984466552734 46.572608947753906 -26.33053207397461 -47.11859893798828 94.16907501220703 -0.3218238949775696 6.990542888641357 2.093242883682251 0.06202217563986778 -0.2310541719198227 -0.5648564696311951 -0.3015986680984497 0.9372538328170776 -0.1768074482679367 -0.6469912528991699 -0.16951537132263184 -0.7696380019187927 7.39593505859375 5.5467095375061035 0.17664650082588196 -1.0055510997772217 0.5290690660476685 -0.8106098175048828 3.1379315853118896 1.1074870824813843 -0.041684847325086594 0.47866198420524597 0.6419768333435059 -0.3388737440109253 9.833426475524902 0.6445987820625305 -0.13572001457214355 -0.17704899609088898 -0.03540241718292236 0.6202688217163086 2.1255362033843994 -1.360029935836792 0.16134820878505707 0.2894189953804016 -0.9199196100234985 -0.35456979274749756 -54.964881896972656 12.025315284729004 -19.29168128967285 27.801679611206055 -46.74832534790039 -92.06941986083984 3.9800920486450195 -42.298072814941406 8.718425750732422 0.35920414328575134 0.14817042648792267 0.3767865300178528 0.9493182301521301 -0.34805968403816223 0.4996459186077118 -0.16488976776599884 -0.4772460460662842 -0.6380842924118042 -8.292264938354492 5.117796897888184 -0.5134413242340088 0.3951585590839386 0.7807678580284119 0.2332838475704193 -2.4411425590515137 1.116111397743225 -0.384290486574173 0.390139102935791 0.0028176906052976847 0.0904577299952507 -10.38349723815918 0.6051521301269531 -0.2552659511566162 -0.5410965085029602 0.05622084438800812 0.4181477725505829 -2.251979351043701 -0.6525676250457764 0.042564310133457184 -0.29035016894340515 -0.22582261264324188 -0.5277186036109924 -68.16212463378906 -43.01246643066406 -57.73324966430664 -168.78872680664062 82.54085540771484 171.50875854492188 -1.511093258857727 -25.947662353515625 -3.8554766178131104 0.6757423281669617 0.2876518964767456 0.009491575881838799 88.5184326171875 -47.33443069458008 69.68638610839844 172.7437286376953 79.8580322265625 -174.3162384033203 -3.264115333557129 -19.930089950561523 -5.637874603271484
